<svg width="27" height="27" viewBox="0 0 27 27" fill="none" xmlns="http://www.w3.org/2000/svg">
<path d="M26.9955 20H0.00454841V21.227C-0.060662 22.1283 0.58285 22.9174 1.45051 23H25.5495C26.4172 22.9174 27.0607 22.1284 26.9955 21.227V20Z" fill="white"/>
<path d="M4.99995 13C3.83676 13.2191 3.00148 14.1561 3 15.2436C3.00241 15.5017 3.0531 15.7576 3.15001 16L5 14.9844V13H4.99995Z" fill="white"/>
<path d="M4 16.5635C4.76894 17.0508 6.04567 17.1418 7 16.7774L5.64179 16L4 16.5635Z" fill="white"/>
<path d="M17 24H10V25H17V24Z" fill="white"/>
<path d="M6 13V14.7584L7.58354 16C8.04294 15.4574 8.12793 14.7712 7.81029 14.1695C7.4927 13.5677 6.81406 13.1293 6 13Z" fill="white"/>
<path d="M20 26H7.00001C6.44773 26 6 26.4477 6 27H21C21 26.4477 20.5523 26 20 26Z" fill="white"/>
<path d="M24 6H23V8H24V6Z" fill="white"/>
<path d="M0.00454103 19H26.9954V1.68385C27.0607 0.827718 26.4171 0.0781895 25.5495 0H1.45051C0.582948 0.0781895 -0.0606167 0.827666 0.00454103 1.68385V19ZM5.78834 18.05C4.42372 18.05 3.19353 17.2399 2.67132 15.9974C2.14911 14.755 2.43778 13.3248 3.40265 12.3738C4.36758 11.4229 5.81871 11.1384 7.07948 11.6531C8.34025 12.1677 9.16221 13.3802 9.16221 14.725C9.16005 16.5604 7.65077 18.0479 5.78834 18.05ZM9.16221 9.80019C9.15746 10.163 8.85566 10.4537 8.48744 10.45H3.08925C2.72129 10.4544 2.41923 10.1642 2.41448 9.80159V6.17495C2.41448 5.91263 2.63025 5.69994 2.89647 5.69994C3.16264 5.69994 3.37846 5.91258 3.37846 6.17495V9.49995H8.19829V6.17495C8.19829 5.91263 8.41405 5.69994 8.68027 5.69994C8.94644 5.69994 9.16226 5.91258 9.16226 6.17495V9.80019H9.16221ZM12.5361 1.42497C12.5361 1.16266 12.7518 0.949964 13.0181 0.949964C13.2842 0.949964 13.5 1.16261 13.5 1.42497V7.12496C13.5 7.38727 13.7158 7.59997 13.982 7.59997H14.464V2.37499C14.464 1.85031 14.8956 1.42497 15.428 1.42497H16.392C16.9244 1.42497 17.356 1.85031 17.356 2.37499V7.59997H18.3199V4.6217C18.3205 4.1681 18.6935 3.80048 19.1537 3.79996H20.378C20.8383 3.80048 21.2113 4.1681 21.2118 4.6217V7.59997H22.1758V5.97404C22.176 5.56044 22.5162 5.22524 22.9359 5.22498H24.3076C24.7273 5.22524 25.0674 5.56044 25.0677 5.97404V7.59997C25.3338 7.59997 25.5496 7.81261 25.5496 8.07498C25.5496 8.33734 25.3339 8.54998 25.0677 8.54998H13.982C13.1834 8.54998 12.536 7.912 12.536 7.12496V1.42497H12.5361ZM12.5361 10.925C12.5361 10.6627 12.7518 10.45 13.0181 10.45C13.2842 10.45 13.5 10.6626 13.5 10.925V14.5283L14.4057 13.6358C14.978 13.0976 15.8784 13.0976 16.4507 13.6358L17.0151 14.1925C17.2033 14.3779 17.5084 14.3779 17.6966 14.1925L19.7074 12.2108C20.2796 11.6727 21.1799 11.6727 21.752 12.2108L22.3169 12.7675C22.505 12.9529 22.8102 12.9529 22.9984 12.7675L24.7267 11.0646C24.9158 10.8846 25.2165 10.8872 25.4024 11.0704C25.5883 11.2536 25.5909 11.5499 25.4083 11.7363L23.6799 13.4396C23.1146 13.9943 22.2006 13.9943 21.6353 13.4396L21.0705 12.8824C20.8801 12.7023 20.5794 12.7023 20.389 12.8824L18.3781 14.8641C17.8135 15.4204 16.8982 15.4204 16.3336 14.8641L15.7687 14.3074C15.5783 14.1273 15.2776 14.1273 15.0872 14.3074L13.5 15.8716V16.625C13.5 16.8873 13.7158 17.1 13.982 17.1H25.0676C25.3338 17.1 25.5496 17.3126 25.5496 17.575C25.5496 17.8373 25.3338 18.05 25.0676 18.05H13.982C13.1834 18.05 12.536 17.412 12.536 16.625V10.925H12.5361ZM1.61097 4.39607L2.41443 3.68738V2.61246C2.41443 2.35015 2.6302 2.13746 2.89642 2.13746C3.16258 2.13746 3.3784 2.3501 3.3784 2.61246V2.83664L5.31838 1.12666C5.5837 0.896192 5.98066 0.893127 6.24956 1.11954L9.96561 4.39706C10.1633 4.57193 10.1801 4.87149 10.0032 5.06678C9.82565 5.26223 9.52094 5.27881 9.32263 5.10383L5.78824 1.98591L2.25396 5.10383C2.05532 5.27584 1.7531 5.25802 1.57671 5.06388C1.40032 4.86973 1.41561 4.57172 1.61097 4.39607Z" fill="white"/>
<path d="M20 5H19V8H20V5Z" fill="white"/>
<path d="M16 2H15V8H16V2Z" fill="white"/>
</svg>
