<svg width="23" height="26" viewBox="0 0 23 26" fill="none" xmlns="http://www.w3.org/2000/svg">
<path d="M6 21.6333L5.15758 21C4.52399 21.0003 3.89667 21.1107 3.31167 21.325C3.1517 21.3799 2.99662 21.4454 2.8478 21.5208C1.91065 22.1209 1.79234 22.2083 1.74969 22.2417C1.47075 22.4879 1.22753 22.7636 1.02558 23.0625C0.872378 23.2829 0.743974 23.516 0.642194 23.7584L0.022138 25.4542C-0.0569567 25.6753 0.082596 25.911 0.333858 25.9806C0.380005 25.9934 0.42815 26 0.476572 26H3.46315C3.57724 24.497 4.30712 23.0816 5.51733 22.0167C5.67347 21.8833 5.82961 21.7541 6 21.6333Z" fill="white"/>
<path d="M22.9744 25.4541L22.2455 23.7375C22.1251 23.503 21.9773 23.2771 21.8037 23.0624C21.5694 22.7641 21.2855 22.4897 20.9589 22.2458C20.9091 22.2083 20.7711 22.1208 19.6777 21.5208C19.503 21.4458 19.3222 21.379 19.1365 21.3208C18.4529 21.1099 17.7215 21.0009 16.9829 21L16 21.6333C16.1987 21.7542 16.381 21.8834 16.5632 22.0167C17.9751 23.0816 18.8267 24.497 18.9598 26H22.4442C22.7514 25.9998 23.0003 25.8116 23 25.5798C23 25.5371 22.9913 25.4948 22.9744 25.4541Z" fill="white"/>
<path d="M9.0566 22.1841C8.72495 22.4143 8.42096 22.7017 8.1535 23.0377C7.50942 23.832 7.10243 24.8773 7 26H10L9.36069 22C9.25779 22.0558 9.155 22.1172 9.0566 22.1841Z" fill="white"/>
<path d="M16.1092 22.5942C15.8385 22.3654 15.543 22.1581 15.2264 21.9749C14.4059 21.4966 13.4632 21.1843 12.4729 21.0627C11.8282 20.9791 11.1718 20.9791 10.527 21.0627C7.53514 21.44 5.24691 23.4841 5 26H6.00811C6.12677 24.9351 6.68937 23.9386 7.59797 23.1841C7.96613 22.8785 8.38296 22.6166 8.83676 22.4059C9.17278 22.251 9.52754 22.1262 9.89501 22.0335H9.9201C9.93015 22.0293 9.93515 22.0251 9.9452 22.0251C9.97188 22.023 9.99874 22.023 10.0254 22.0251C10.0555 22.023 10.0857 22.023 10.1156 22.0251C10.1483 22.0309 10.1802 22.0394 10.2109 22.0502C10.2405 22.0575 10.2691 22.0673 10.2962 22.0795C10.3234 22.0939 10.3486 22.1108 10.3714 22.1297C10.3956 22.1457 10.4175 22.164 10.4366 22.1841C10.4552 22.2083 10.4719 22.2335 10.4868 22.2594C10.4968 22.2804 10.5118 22.2929 10.5219 22.3138V22.3347C10.5269 22.3431 10.5319 22.3472 10.5319 22.3556L11.4046 26H11.5952L12.4679 22.3556C12.4679 22.3472 12.4729 22.3431 12.4779 22.3347V22.3137C12.488 22.2928 12.503 22.2803 12.5131 22.2594C12.5279 22.2334 12.5446 22.2082 12.5632 22.1841C12.5813 22.1642 12.6033 22.1472 12.6284 22.1338C12.6497 22.1124 12.6752 22.094 12.7036 22.0795C12.7294 22.068 12.7562 22.0582 12.7838 22.0502C12.8165 22.0399 12.8501 22.0315 12.8842 22.025C12.9142 22.0229 12.9444 22.0229 12.9744 22.025C13.0011 22.0229 13.0279 22.0229 13.0546 22.025C13.0647 22.025 13.0697 22.0292 13.0797 22.0334H13.1049C13.4746 22.1264 13.8312 22.2527 14.1682 22.41C14.6206 22.619 15.0359 22.8795 15.402 23.1841C16.3106 23.9386 16.8732 24.9351 16.9919 26H18C17.8801 24.7122 17.209 23.5033 16.1092 22.5942Z" fill="white"/>
<path d="M13.9479 22.1897C13.8477 22.1197 13.7448 22.0564 13.6393 22L13 26H16C15.8976 24.8773 15.4906 23.832 14.8465 23.0377C14.5808 22.7031 14.2782 22.4175 13.9479 22.1897Z" fill="white"/>
<path d="M5.19593 9C5.03627 9.29268 4.97284 9.60697 5.0106 9.9193C5.0106 11.8634 5.39905 12.7329 5.61096 13C5.75634 12.9181 5.88424 12.8218 5.99071 12.7143C6.04307 11.5074 5.87389 10.3007 5.48741 9.12425C5.40153 9.07089 5.30282 9.02875 5.19593 9Z" fill="white"/>
<path d="M16 20.2998L15.0227 19L14 20.1688C14.4882 20.3613 14.9545 20.6409 15.3863 21L16 20.2998Z" fill="white"/>
<path d="M12.4771 19.9999L14.8841 17.7469C14.8873 17.2193 14.9187 16.6923 14.9779 16.1686C14.9834 16.1144 14.9945 16.0542 15 16C14.6633 16.3374 14.31 16.6807 13.9125 17.0361C12.5039 18.2753 10.4935 18.2728 9.08757 17.0301C8.69002 16.6807 8.3368 16.3374 8 16C8.0055 16.0543 8.01656 16.1144 8.02206 16.1747C8.08145 16.6963 8.11283 17.2213 8.11593 17.747L10.5229 20C11.172 19.9156 11.8281 19.9156 12.4771 19.9999Z" fill="white"/>
<path d="M7 20.2998L7.61368 21C8.04546 20.6409 8.51181 20.3613 9 20.1688L7.97727 19L7 20.2998Z" fill="white"/>
<path d="M17.009 12.7143C17.1154 12.8219 17.2433 12.9181 17.3889 13C17.6009 12.7329 17.9894 11.8633 17.9894 9.91924C18.0271 9.60691 17.9638 9.29261 17.8039 9C17.7003 9.03086 17.6024 9.07046 17.5124 9.11799C17.1267 10.2967 16.9576 11.5054 17.009 12.7143Z" fill="white"/>
<path d="M17 7.17264C17 7.11509 16.989 7.05755 16.989 7C15.8175 7.62824 13.81 8.01185 11.5 8.01185C9.19002 8.01185 7.18251 7.62818 6.01102 7C6.01102 7.05755 6 7.11509 6 7.17264C6.0018 7.49342 6.05169 7.81268 6.1485 8.12216C6.58446 9.52554 6.72606 10.9861 6.56647 12.4334C6.55545 12.5293 6.54997 12.6396 6.54997 12.7451C6.54997 13.6707 7.69949 14.9943 9.78943 16.4713C10.7864 17.1762 12.2134 17.1762 13.2104 16.4713C15.3003 14.9942 16.4498 13.6707 16.4498 12.7451C16.4498 12.6396 16.4444 12.5293 16.4333 12.4286C16.2733 10.9811 16.4168 9.52015 16.8569 8.11739C16.9497 7.80886 16.9977 7.49151 17 7.17264ZM10.95 12.3039H12.05C12.3538 12.3039 12.6 12.5185 12.6 12.7834C12.6 13.0483 12.3537 13.2629 12.05 13.2629H10.95C10.6463 13.2629 10.4001 13.0483 10.4001 12.7834C10.4001 12.5185 10.6463 12.3039 10.95 12.3039ZM9.30004 9.90612V10.3857C9.30004 10.6505 9.05377 10.8652 8.75006 10.8652C8.4463 10.8652 8.20009 10.6505 8.20009 10.3857V9.90612H7.65012C7.34635 9.90612 7.10014 9.69144 7.10014 9.42658C7.10014 9.16172 7.34635 8.94704 7.65012 8.94704H9.85008C10.1538 8.94704 10.4001 9.16172 10.4001 9.42658C10.4001 9.69144 10.1538 9.90612 9.85008 9.90612H9.30004ZM12.6 15.1812H10.4001C10.0963 15.1812 9.85008 14.9665 9.85008 14.7017C9.85008 14.4369 10.0963 14.2221 10.4001 14.2221H12.6C12.9038 14.2221 13.15 14.4368 13.15 14.7017C13.15 14.9665 12.9038 15.1812 12.6 15.1812ZM15.3499 9.90612H14.8V10.3857C14.8 10.6505 14.5538 10.8652 14.25 10.8652C13.9462 10.8652 13.7 10.6505 13.7 10.3857V9.90612H13.1501C12.8463 9.90612 12.6001 9.69144 12.6001 9.42658C12.6001 9.16172 12.8463 8.94704 13.1501 8.94704H15.35C15.6538 8.94704 15.9 9.16172 15.9 9.42658C15.9 9.69144 15.6537 9.90612 15.3499 9.90612Z" fill="white"/>
<path d="M5.49998 4.14939C5.50075 4.09517 5.51434 4.04158 5.54 3.99169C5.56414 3.94088 5.59977 3.89439 5.645 3.85476C5.66873 3.83692 5.69381 3.82029 5.71995 3.80492C5.74784 3.78922 5.77813 3.77667 5.80995 3.76758C5.83831 3.75562 5.8686 3.74725 5.89995 3.74273C6.06313 3.71424 6.23258 3.75644 6.34989 3.85476C6.44458 3.93281 6.49849 4.03862 6.49995 4.14939C6.49796 4.37788 6.27524 4.56266 5.99997 4.56431C5.88055 4.56548 5.76483 4.53003 5.67495 4.46473C5.88178 4.66565 6.11674 4.84537 6.37497 5C6.4154 4.98872 6.45741 4.98177 6.49995 4.97924H17.5C17.5425 4.98172 17.5845 4.98872 17.625 5C17.8943 4.83958 18.1394 4.65291 18.355 4.44396C18.1578 4.60443 17.8422 4.60443 17.645 4.44396C17.6008 4.4036 17.5653 4.35731 17.54 4.30703C17.4866 4.20657 17.4866 4.09211 17.54 3.99169C17.5641 3.94088 17.5998 3.89439 17.645 3.85476C17.7651 3.75742 17.9353 3.7155 18.1 3.74273C18.1313 3.74725 18.1616 3.75567 18.19 3.76763C18.2219 3.77672 18.2521 3.78927 18.28 3.80497C18.3062 3.82029 18.3312 3.83692 18.355 3.85476C18.3992 3.89512 18.4347 3.94142 18.46 3.99169C18.5134 4.09216 18.5134 4.20662 18.46 4.30703C18.448 4.33178 18.433 4.35542 18.4151 4.37759L18.415 4.37764C18.7772 4.03765 18.9842 3.60298 19 3.1494C19.0001 1.44399 15.7951 0 12 0C8.20492 0 5 1.44399 5 3.1494C5.01465 3.60371 5.21973 4.03954 5.57996 4.38182C5.52869 4.31165 5.5011 4.23142 5.49998 4.14939ZM16.645 3.02492C16.8395 2.86221 17.1561 2.86114 17.3522 3.02248C17.4475 3.10097 17.5008 3.20804 17.5 3.31949C17.5005 3.42973 17.4484 3.53563 17.355 3.61411C17.2605 3.69153 17.1328 3.73476 17 3.73446C16.9347 3.73383 16.8701 3.72255 16.81 3.70125C16.7494 3.68025 16.6936 3.65078 16.645 3.61411C16.5509 3.53612 16.4986 3.42992 16.5 3.31954C16.501 3.2095 16.5529 3.10403 16.645 3.02492ZM16.3521 3.85238C16.4475 3.93086 16.5008 4.03794 16.5 4.14939C16.5014 4.25977 16.4491 4.36597 16.355 4.44401C16.1605 4.60671 15.8439 4.60778 15.6479 4.44644C15.5525 4.36796 15.4992 4.26089 15.5 4.14944C15.5009 4.03945 15.5528 3.93393 15.645 3.85481C15.8395 3.69211 16.1561 3.69099 16.3521 3.85238ZM14.6451 3.02492C14.6688 3.00707 14.6938 2.99044 14.72 2.97507C14.7479 2.95942 14.7782 2.94687 14.8101 2.93778C14.8384 2.92582 14.8687 2.9174 14.9001 2.91288C15.0647 2.88502 15.2353 2.92703 15.355 3.02492C15.4464 3.10447 15.4982 3.20965 15.5001 3.31954C15.5005 3.42977 15.4484 3.53568 15.355 3.61416C15.3064 3.65078 15.2506 3.68025 15.19 3.70125V3.7013C14.9387 3.79063 14.6476 3.69396 14.54 3.4854C14.513 3.43303 14.4993 3.37653 14.5 3.31954C14.5019 3.20965 14.5537 3.10447 14.6451 3.02492ZM14 3.73446C14.2762 3.73446 14.5 3.92021 14.5 4.14939C14.5014 4.25977 14.4491 4.36597 14.355 4.44401C14.1605 4.60671 13.844 4.60778 13.6479 4.44644C13.5525 4.36796 13.4992 4.26089 13.5 4.14944C13.5 3.92026 13.7239 3.73446 14 3.73446ZM12.645 3.02492C12.7631 2.92766 12.9318 2.88565 13.0949 2.91288C13.1281 2.91677 13.1602 2.92518 13.19 2.93778C13.2207 2.94604 13.2495 2.95869 13.275 2.97512C13.3037 2.98937 13.3305 3.00605 13.355 3.02492C13.4463 3.10447 13.4981 3.20965 13.5 3.31954C13.5026 3.54648 13.2831 3.73228 13.0096 3.73446C13.0064 3.73446 13.0032 3.73446 13 3.73446C12.9347 3.73383 12.8701 3.72255 12.81 3.70125C12.7494 3.68025 12.6936 3.65078 12.645 3.61411C12.5509 3.53612 12.4986 3.42992 12.5 3.31954C12.5019 3.20965 12.5537 3.10447 12.645 3.02492ZM11.645 3.85481C11.7887 3.73694 12.0038 3.70257 12.19 3.76768C12.3155 3.80551 12.4144 3.88759 12.46 3.99174C12.5398 4.14613 12.4982 4.32532 12.355 4.44401H12.355C12.1579 4.60448 11.8422 4.60448 11.645 4.44401C11.5517 4.36553 11.4996 4.25962 11.5 4.14939C11.4983 4.09493 11.512 4.04095 11.54 3.99169C11.5642 3.94093 11.5998 3.89444 11.645 3.85481ZM10.645 3.02496C10.8395 2.86226 11.1561 2.86119 11.3521 3.02253C11.4475 3.10102 11.5008 3.20804 11.5 3.31954C11.5027 3.54648 11.2831 3.73228 11.0096 3.73446C11.0064 3.73446 11.0032 3.73446 11 3.73446C10.867 3.73558 10.7391 3.69221 10.645 3.61411C10.4517 3.45054 10.4517 3.18854 10.645 3.02496ZM9.54004 3.99174C9.56419 3.94093 9.59981 3.89444 9.64504 3.85481C9.76352 3.7581 9.93192 3.71613 10.095 3.74278C10.1281 3.74667 10.1602 3.75508 10.19 3.76768C10.2207 3.77594 10.2494 3.78858 10.275 3.80502C10.3037 3.81927 10.3305 3.83595 10.355 3.85481C10.4463 3.93437 10.4981 4.03959 10.5 4.14944C10.5013 4.25982 10.4491 4.36602 10.355 4.44406C10.1622 4.60735 9.84637 4.61002 9.64962 4.44999C9.50284 4.33057 9.4593 4.14861 9.54004 3.99174ZM8.5 3.31954C8.50188 3.20969 8.55367 3.10447 8.64502 3.02492C8.76315 2.92766 8.93184 2.88565 9.09496 2.91288C9.12807 2.91677 9.16018 2.92518 9.19 2.93778C9.22071 2.94604 9.24948 2.95869 9.27502 2.97512C9.30303 2.98835 9.32834 3.00513 9.35002 3.02492C9.44471 3.10296 9.49856 3.20877 9.50002 3.31954C9.49803 3.54803 9.27532 3.73281 9.00004 3.73446C8.72658 3.73665 8.5027 3.55445 8.50006 3.32751C8.49994 3.32484 8.49994 3.32217 8.5 3.31954ZM7.64505 3.85481C7.8455 3.70125 8.15453 3.70125 8.35504 3.85481C8.39922 3.89517 8.43473 3.94146 8.46004 3.99174C8.4857 4.04163 8.4993 4.09517 8.50006 4.14944C8.50047 4.25967 8.44838 4.36558 8.35504 4.44406C8.15787 4.60453 7.84222 4.60453 7.64505 4.44406C7.55171 4.36558 7.49962 4.25967 7.50003 4.14944C7.49833 4.09498 7.51204 4.041 7.54005 3.99174C7.56414 3.94093 7.59982 3.89444 7.64505 3.85481ZM6.64497 3.02492C6.6936 2.9883 6.74938 2.95883 6.80997 2.93778C6.93068 2.89217 7.06925 2.89217 7.18995 2.93778C7.25113 2.95781 7.30714 2.98743 7.35495 3.02496C7.44624 3.10452 7.49804 3.20969 7.49997 3.31954C7.49921 3.37376 7.48562 3.42734 7.45996 3.47723C7.43464 3.52751 7.39913 3.5738 7.35501 3.61416C7.21193 3.73301 6.99607 3.76753 6.81003 3.7013C6.68446 3.66352 6.58561 3.58144 6.54009 3.47728C6.51202 3.42802 6.49831 3.374 6.50007 3.31959C6.50188 3.20965 6.55368 3.10447 6.64497 3.02492Z" fill="white"/>
</svg>
