<svg width="26" height="26" viewBox="0 0 26 26" fill="none" xmlns="http://www.w3.org/2000/svg">
<path d="M11 12.5C11 12.7761 10.5522 13 10 13C9.44775 13 9 12.7761 9 12.5C9 12.2239 9.44775 12 10 12C10.5522 12 11 12.2239 11 12.5Z" fill="white"/>
<path d="M1.75195 22C0.785725 22 0 22.897 0 24C0 25.103 0.785725 26 1.75195 26H16C15.5836 25.469 15.3295 24.7676 15.3295 24C15.3295 23.2324 15.5836 22.531 16 22H1.75195ZM12.7016 24.5H1.31396V23.5H12.7016V24.5ZM14.4536 24.5H13.5776V23.5H14.4536V24.5Z" fill="white"/>
<path d="M5.52817 13.5261C5.63747 13.9302 5.8119 14.3161 6.04605 14.6733L6.19636 14.9026L5.37267 16.036L6.14295 16.7421L7.37928 15.987L7.62943 16.1248C8.01908 16.3394 8.44005 16.4993 8.88086 16.5995L9.16414 16.6642L9.4553 18H10.5451L10.8363 16.6642L11.1196 16.5995C11.5604 16.4993 11.9814 16.3394 12.371 16.1248L12.6212 15.987L13.8575 16.7421L14.6278 16.036L13.8041 14.9026L13.9544 14.6733C14.1886 14.3161 14.363 13.9302 14.4723 13.5261L14.5428 13.2664L16 12.9995V12.0005L14.5428 11.7336L14.4723 11.4739C14.363 11.0698 14.1886 10.6839 13.9544 10.3267L13.8041 10.0974L14.6278 8.96403L13.8575 8.25792L12.6212 9.013L12.371 8.8752C11.9814 8.66056 11.5604 8.50066 11.1196 8.40046L10.8363 8.3358L10.5451 7H9.4553L9.16414 8.3358L8.88086 8.40046C8.44005 8.50066 8.01908 8.66056 7.62943 8.8752L7.37928 9.013L6.14295 8.25792L5.37267 8.96403L6.19636 10.0974L6.04605 10.3267C5.8119 10.6839 5.63747 11.0698 5.52817 11.4739L5.45763 11.7336L4 12.0005V12.9995L5.45718 13.2664L5.52817 13.5261ZM10 9.11505C12.0359 9.11505 13.6923 10.6335 13.6923 12.4998C13.6923 13.0621 13.5386 13.6193 13.2479 14.1106L12.4364 13.7073C12.6543 13.3396 12.7692 12.9216 12.7692 12.4998C12.7692 11.0997 11.5273 9.96124 10 9.96124C9.53981 9.96124 9.08436 10.0666 8.68277 10.2664L8.24286 9.52244C8.77877 9.25594 9.38657 9.11505 10 9.11505ZM10 10.8074C11.0182 10.8074 11.8462 11.5664 11.8462 12.4998C11.8462 13.4332 11.0182 14.1922 10 14.1922C8.98182 14.1922 8.15385 13.4332 8.15385 12.4998C8.15385 11.5664 8.98182 10.8074 10 10.8074ZM6.7521 10.8894L7.56363 11.2927C7.3457 11.6604 7.23077 12.0779 7.23077 12.4998C7.23077 13.8998 8.47273 15.0384 10 15.0384C10.4602 15.0384 10.9156 14.933 11.3172 14.7332L11.7571 15.4771C11.2212 15.7436 10.6134 15.8845 10 15.8845C7.96409 15.8845 6.30769 14.3661 6.30769 12.4998C6.30769 11.9375 6.46139 11.3807 6.7521 10.8894Z" fill="white"/>
<path d="M22 0V4H26L22 0Z" fill="white"/>
<path d="M2.17949 5.61828H1.30769V3.06201C0.557429 3.25697 0 3.93434 0 4.74552V22C0.360552 21.6761 0.809858 21.4515 1.30769 21.3672V6.49104H2.17949V21.328H17V3H2.17949V5.61828ZM5.66667 20.4552H4.79487V19.5824H5.66667V20.4552ZM15.2564 3.87276H16.1282V4.74552H15.2564V3.87276ZM13.5128 3.87276H14.3846V4.74552H13.5128V3.87276ZM3.05128 11.3703L4.5948 11.0609C4.69164 10.747 4.81701 10.4434 4.97004 10.1536L4.09697 8.84191L5.83502 7.10193L7.14527 7.97597C7.43473 7.82234 7.73803 7.69684 8.05155 7.60031L8.36059 6.05509H10.8185L11.1275 7.60031C11.441 7.69726 11.7443 7.82277 12.0338 7.97597L13.344 7.10193L15.0821 8.84191L14.2094 10.1536C14.3629 10.4434 14.4883 10.747 14.5847 11.0609L16.1282 11.3703V13.8309L14.5847 14.1403C14.4878 14.4541 14.3625 14.7578 14.2094 15.0475L15.0825 16.3592L13.3445 18.0992L12.0342 17.2252C11.7448 17.3788 11.4415 17.5043 11.1279 17.6008L10.8189 19.1461H8.36102L8.05197 17.6008C7.73846 17.5039 7.43516 17.3784 7.1457 17.2252L5.83545 18.0992L4.09739 16.3592L4.97047 15.0475C4.81701 14.7578 4.69164 14.4541 4.59523 14.1403L3.05128 13.8309V11.3703ZM3.05128 19.5824H3.92308V20.4552H3.05128V19.5824Z" fill="white"/>
<path d="M20.7059 5.45455V0H11V1.81818H18.5V7.27273H25.1176V8.18182H18.5V9.09091H25.1176V10H18.5V10.9091H25.1176V11.8182H18.5V12.7273H25.1176V13.6364H18.5V14.5455H25.1176V15.4545H18.5V16.3636H23.3529V17.2727H18.5V18.1818H25.1176V19.0909H18.5V20H26V5.45455H20.7059ZM25.1176 17.2727H24.2353V16.3636H25.1176V17.2727Z" fill="white"/>
</svg>
