<svg width="30" height="34" viewBox="0 0 30 34" fill="none" xmlns="http://www.w3.org/2000/svg">
<path d="M27.7071 15.1464C27.5202 15.0533 27.2632 14.9999 27.0004 14.9999C26.7366 14.9999 26.4797 15.0533 26.2938 15.1464C26.1069 15.2394 26 15.3684 26 15.4999C26 15.6314 26.1069 15.7604 26.2938 15.8533C26.4788 15.9463 26.7367 15.9999 27.0004 15.9999C27.2633 15.9999 27.5212 15.9464 27.7071 15.8533C27.8929 15.7604 28 15.6314 28 15.4999C28 15.3684 27.893 15.2394 27.7071 15.1464Z" fill="white"/>
<path d="M29.5054 1.37204C29.0644 0.693372 28.3883 0.228861 27.6016 0.0641732C26.8152 -0.100448 26.0119 0.0540795 25.3404 0.499798C24.6689 0.94545 24.2092 1.6287 24.0463 2.42372L23.9764 2.76485C23.4662 1.25059 22.0461 0.157872 20.3773 0.157872C18.281 0.157872 16.5757 1.88138 16.5757 3.9998V4.5776C16.5757 5.683 17.0406 6.68022 17.7825 7.38174C17.5095 7.48899 17.2454 7.62518 16.9948 7.79153C16.0608 8.41137 15.4215 9.36164 15.1939 10.4713L14.6578 13.1707L13.4257 14.4229H8.29669C7.12429 14.4229 6.1705 15.3869 6.1705 16.5716C6.1705 16.8622 6.22813 17.1392 6.33202 17.3922H5.79937C4.56454 17.3922 3.48459 18.2356 3.17325 19.4434L2.39768 22.4514C2.30614 22.8064 2.51668 23.169 2.86783 23.2615C2.92342 23.2761 2.97908 23.2831 3.03395 23.2831C3.32577 23.283 3.59236 23.0851 3.66937 22.7863L4.44495 19.7782C4.60554 19.1554 5.16257 18.7203 5.79937 18.7203H15.4253C15.6008 18.7203 15.7689 18.6495 15.8923 18.5234L19.2188 15.1273C19.4741 14.8666 19.472 14.4462 19.2141 14.1882C18.9562 13.9301 18.5401 13.9322 18.2849 14.1929L15.1512 17.3921H8.29669C7.849 17.3921 7.48471 17.024 7.48471 16.5716C7.48471 16.1191 7.849 15.751 8.29669 15.751H13.699C13.8739 15.751 14.0416 15.6805 14.165 15.5551L17.9263 11.7321C18.1822 11.4721 18.181 11.0516 17.9236 10.793C17.6663 10.5344 17.2502 10.5355 16.9944 10.7957L16.3371 11.4638L16.4815 10.7367C16.637 9.97842 17.0755 9.32671 17.7161 8.90158C18.3566 8.47651 19.1227 8.32889 19.8727 8.48614C20.623 8.64326 21.2679 9.08632 21.6885 9.73358C22.1091 10.3809 22.2551 11.1549 22.0997 11.9132C22.0986 11.9182 22.0983 11.9231 22.0974 11.9281L20.45 19.9614C20.2613 20.8815 19.4494 21.5493 18.5197 21.5493H9.17819C7.63748 21.5493 6.34693 22.7485 6.18778 24.2713C6.17503 24.3015 6.1636 24.3325 6.15519 24.3653L4.14248 32.172C4.06665 32.4663 3.80348 32.6717 3.50259 32.6717H1.97647C1.77008 32.6717 1.57938 32.5771 1.45322 32.4121C1.32699 32.2471 1.28454 32.0368 1.33652 31.835L2.43395 27.5783C2.52548 27.2234 2.31488 26.8607 1.96379 26.7683C1.6125 26.6756 1.25372 26.8886 1.16226 27.2434L0.064827 31.5001C-0.090578 32.103 0.03644 32.7314 0.41342 33.2243C0.790335 33.7172 1.36011 33.9999 1.97654 33.9999H3.50259C4.40158 33.9999 5.18767 33.3859 5.41424 32.5069L6.93846 26.5948C6.96862 26.6286 6.9993 26.6622 7.03111 26.695C7.60699 27.2882 8.40656 27.6284 9.22472 27.6284H12.4234L10.1761 33.0806C10.0917 33.2855 10.1142 33.5196 10.236 33.7044C10.3578 33.889 10.563 34 10.7827 34H20.9194C21.1391 34 21.3443 33.889 21.4661 33.7044C21.5879 33.5196 21.6104 33.2855 21.526 33.0806L19.2787 27.6284H22.5727C23.9914 27.6284 25.2299 26.6095 25.5177 25.2057L26.9562 18.191C27.0299 17.8319 26.8015 17.4805 26.4461 17.406C26.091 17.332 25.743 17.5623 25.6693 17.9215L24.2309 24.9363C24.0688 25.7267 23.3714 26.3003 22.5727 26.3003H9.22465C8.75712 26.3003 8.29952 26.1052 7.96919 25.7649C7.64846 25.4345 7.47656 25.005 7.48503 24.5553C7.50258 23.6301 8.26213 22.8774 9.17826 22.8774H18.5198C20.0695 22.8774 21.4225 21.7644 21.7369 20.2309L25.3332 2.69313C25.4249 2.24548 25.6838 1.86079 26.0619 1.60984C26.44 1.35903 26.8923 1.27197 27.3351 1.36467C27.778 1.45738 28.1587 1.71895 28.407 2.10105C28.6553 2.48315 28.7415 2.94016 28.6496 3.38774L26.6972 12.9091C26.6235 13.2682 26.8518 13.6196 27.2073 13.694C27.5625 13.7685 27.9104 13.5377 27.984 13.1785L29.9365 3.65721C30.0994 2.8622 29.9464 2.05071 29.5054 1.37204ZM17.855 27.6283L19.9338 32.6718H11.7682L13.847 27.6283H17.855ZM20.3773 7.09134C19.0056 7.09134 17.8898 5.96363 17.8898 4.57754V3.99974C17.8898 2.61357 19.0057 1.48586 20.3773 1.48586C21.7489 1.48586 22.8647 2.61357 22.8647 3.99974V4.57754C22.8648 5.96363 21.7489 7.09134 20.3773 7.09134ZM22.7176 8.90337C22.5002 8.58867 22.2462 8.3085 21.961 8.06898C22.3648 7.88111 22.7309 7.62432 23.0438 7.31274L22.7176 8.90337Z" fill="white"/>
<path d="M2.8535 24.1466C2.76055 24.0537 2.63155 24.0001 2.5 24.0001C2.3685 24.0001 2.2395 24.0536 2.14655 24.1466C2.05355 24.2401 2 24.3686 2 24.5001C2 24.6321 2.0535 24.7606 2.14655 24.8536C2.2395 24.9471 2.3685 25.0001 2.5 25.0001C2.63155 25.0001 2.76 24.9471 2.8535 24.8536C2.9465 24.7611 3 24.6321 3 24.5001C3 24.3686 2.94655 24.2396 2.8535 24.1466Z" fill="white"/>
</svg>
