<svg width="31" height="31" viewBox="0 0 31 31" fill="none" xmlns="http://www.w3.org/2000/svg">
<path d="M24.7142 15V29.08C24.7142 29.4335 24.4264 29.72 24.0714 29.72H9.92857C9.57353 29.72 9.28569 29.4335 9.28569 29.08V22.04H8V29.08C8 30.1404 8.86346 31 9.92857 31H24.0714C25.1365 31 26 30.1404 26 29.08V15H24.7142Z" fill="white"/>
<path d="M12.4 16.9999H6.55003C4.03842 17.0036 2.00323 19.3519 2 22.2499H3.29998C3.30211 20.1798 4.75596 18.5024 6.54997 18.4999H12.4C13.1179 18.4999 13.7 19.1715 13.7 19.9999C13.7 20.8283 13.1179 21.4999 12.4 21.4999H6.54997V22.9999H12.4C13.8359 22.9999 15 21.6567 15 19.9998C15 18.343 13.836 16.9999 12.4 16.9999Z" fill="white"/>
<path d="M0.600022 18.9998C0.268652 18.9998 0 19.4475 0 19.9998V20.9998H3V18.9998H0.600022Z" fill="white"/>
<path d="M6.20001 28.5713C4.54395 28.5689 3.202 26.9714 3.19998 24.9999H2C2.00298 27.7598 3.88161 29.9963 6.20001 29.9999H8V28.5713H6.20001V28.5713Z" fill="white"/>
<path d="M0 25.9998V26.9998C0 27.552 0.268647 27.9998 0.600011 27.9998H3V25.9999H0V25.9998Z" fill="white"/>
<path d="M24.3333 0.999878H19.6666C18.1939 0.999878 17 2.34305 17 3.99988C17 5.65671 18.1939 6.99988 19.6667 6.99988H25.6667V5.49984H19.6667C18.9303 5.49984 18.3334 4.82829 18.3334 3.99988C18.3334 3.17146 18.9303 2.49991 19.6667 2.49991H24.3334C26.1734 2.50237 27.6645 4.17988 27.6667 6.24986H29C28.9967 3.35195 26.9093 1.0036 24.3333 0.999878Z" fill="white"/>
<path d="M30.4 2.99976H28V4.99976H31V3.9998C31 3.44751 30.7314 2.99976 30.4 2.99976Z" fill="white"/>
<path d="M27.7143 8.99988C27.7121 10.9714 26.2743 12.5689 24.5 12.5713H20V13.9999H24.5C26.9839 13.9963 28.9968 11.7599 29 8.99988H27.7143Z" fill="white"/>
<path d="M28 9.99997V11.9999H30.4C30.7314 11.9999 31 11.5521 31 10.9999V9.99988H28V9.99997Z" fill="white"/>
<path d="M22.715 5.81669L21.5125 6.18C22.0016 8.02369 21.7216 10.0028 20.7441 11.6104C18.8701 14.6923 15.0089 15.5703 12.1196 13.5714C9.23042 11.5724 8.40733 7.45362 10.2813 4.37162C12.1552 1.28969 16.0164 0.411687 18.9057 2.41062L19.5882 1.29331C18.3718 0.449563 16.952 0.000250118 15.501 1.17786e-07C11.359 -0.000749882 8.0007 3.58031 8 7.99862C7.9993 12.4169 11.3564 15.9993 15.4984 16C16.1871 15.9995 16.8724 15.8979 17.5351 15.698C21.5235 14.4951 23.8426 10.0711 22.715 5.81669Z" fill="white"/>
<path d="M14.1428 6.00023H17V5.00024H14.1428C12.9594 5.00024 12 5.67182 12 6.50024C12 7.32867 12.9594 8.00024 14.1428 8.00024H17V7.00026H14.1428C13.7484 7.00026 13.4285 6.77638 13.4285 6.50024C13.4285 6.2241 13.7484 6.00023 14.1428 6.00023Z" fill="white"/>
<path d="M16.9 7H14.1V8.33331H16.9C17.2866 8.33331 17.6 8.63181 17.6 9C17.6 9.36819 17.2866 9.66669 16.9 9.66669H14.1C13.7134 9.66669 13.4 9.36819 13.4 9H12C12 10.1046 12.9402 11 14.1 11H16.9C18.0598 11 19 10.1046 19 9C19 7.89544 18.0598 7 16.9 7Z" fill="white"/>
<path d="M16 9.99988H15V11.9999H16V9.99988Z" fill="white"/>
<path d="M16 2.99976H15V4.99976H16V2.99976Z" fill="white"/>
<path d="M9.71428 14.0001C8.76751 14.0001 8 14.7676 8 15.7144V18.0001H9.14283V15.7144C9.14283 15.3988 9.39869 15.143 9.71428 15.143H12V14.0001H9.71428Z" fill="white"/>
<path d="M12 14.0001H11V18.0001H12V14.0001Z" fill="white"/>
<path d="M15.5 15V19.6667H14V21H16.25C16.6642 21 17 20.7015 17 20.3333V15H15.5Z" fill="white"/>
<path d="M23 27.0002H19V28.0002H23V27.0002Z" fill="white"/>
<path d="M23 23.9999H19V25.9999H23V23.9999Z" fill="white"/>
</svg>
