<svg width="24" height="24" viewBox="0 0 24 24" fill="none" xmlns="http://www.w3.org/2000/svg">
<path d="M7 1.99988H2V2.99988H7V1.99988Z" fill="white"/>
<path d="M7 4.00024H2V5.00024H7V4.00024Z" fill="white"/>
<path d="M6 6.00012H2V7.00012H6V6.00012Z" fill="white"/>
<path d="M6 7.00012H2V8.00012H6V7.00012Z" fill="white"/>
<path d="M24 23H0V24H24V23Z" fill="white"/>
<path d="M22.959 3.42147L21.4059 0.221524C21.3101 0.0238271 21.077 -0.0564714 20.8851 0.0421768C20.885 0.0422268 20.8849 0.0422768 20.8848 0.0423268L17.7786 1.6423C17.5867 1.74105 17.5088 1.98139 17.6047 2.17909C17.7005 2.37678 17.9339 2.45703 18.1258 2.35828L20.3754 1.20031L19.7615 3.00587C17.0634 10.9221 10.1138 16.4758 2 17.2L2.06601 18C10.4856 17.2486 17.6966 11.4849 20.495 3.26987L21.1217 1.4251L22.264 3.77906C22.3598 3.97675 22.5931 4.057 22.785 3.95826C22.977 3.85951 23.0548 3.61921 22.959 3.42147Z" fill="white"/>
<path d="M4.66667 18.9998H2.33333C2.14925 18.9998 2 19.1677 2 19.3748V21.6248C2 21.8318 2.14925 21.9998 2.33333 21.9998H4.66667C4.85075 21.9998 5 21.8318 5 21.6248V19.3748C5 19.1677 4.85075 18.9998 4.66667 18.9998ZM4.33333 21.2498H2.66667V19.7498H4.33333V21.2498Z" fill="white"/>
<path d="M8.66667 17.9999H6.33333C6.14925 17.9999 6 18.1627 6 18.3635V21.6362C6 21.8371 6.14925 21.9999 6.33333 21.9999H8.66667C8.85075 21.9999 9 21.8371 9 21.6362V18.3635C9 18.1627 8.85075 17.9999 8.66667 17.9999ZM8.33333 21.2726H6.66667V18.7272H8.33333V21.2726Z" fill="white"/>
<path d="M13.6667 16H11.3333C11.1493 16 11 16.1679 11 16.375V21.625C11 21.8321 11.1493 22 11.3333 22H13.6667C13.8507 22 14 21.8321 14 21.625V16.375C14 16.1679 13.8507 16 13.6667 16ZM13.3333 21.25H11.6667V16.75H13.3333V21.25Z" fill="white"/>
<path d="M17.6667 13.0001H15.3333C15.1493 13.0001 15 13.1753 15 13.3914V21.6088C15 21.8249 15.1493 22.0001 15.3333 22.0001H17.6667C17.8508 22.0001 18 21.8249 18 21.6088V13.3914C18 13.1753 17.8508 13.0001 17.6667 13.0001ZM17.3333 21.2175H15.6667V13.7827H17.3333V21.2175Z" fill="white"/>
<path d="M22.5556 7H19.4444C19.199 7 19 7.18152 19 7.40541V21.5946C19 21.8185 19.199 22 19.4444 22H22.5556C22.801 22 23 21.8185 23 21.5946V7.40541C23 7.18152 22.801 7 22.5556 7ZM22.1111 21.1892H19.8889V7.81081H22.1111V21.1892Z" fill="white"/>
</svg>
