<svg width="25" height="26" viewBox="0 0 25 26" fill="none" xmlns="http://www.w3.org/2000/svg">
<g id="schedule">
<path id="Shape" fill-rule="evenodd" clip-rule="evenodd" d="M12.5 0C5.625 0 0 5.85 0 13C0 20.15 5.625 26 12.5 26C19.375 26 25 20.15 25 13C25 5.85 19.375 0 12.5 0ZM12.5 23C6.725 23 2 18.275 2 12.5C2 6.725 6.725 2 12.5 2C18.275 2 23 6.725 23 12.5C23 18.275 18.275 23 12.5 23Z" fill="black" fill-opacity="0.9"/>
<path id="Shape_2" fill-rule="evenodd" clip-rule="evenodd" d="M13 6H11V13.3333L17.9333 17.2444L19 15.6556L13 12.3556V6Z" fill="black" fill-opacity="0.9"/>
</g>
</svg>
