<svg width="22" height="24" viewBox="0 0 22 24" fill="none" xmlns="http://www.w3.org/2000/svg">
<path d="M21.6655 21.8602L16.2421 15.9194C17.6366 14.1735 18.4006 11.9768 18.4006 9.68999C18.4006 4.34701 14.2733 0 9.2003 0C4.12733 0 0 4.34701 0 9.68999C0 15.033 4.12733 19.38 9.2003 19.38C11.1048 19.38 12.9196 18.775 14.4713 17.6265L19.9358 23.6124C20.1643 23.8622 20.4715 24 20.8007 24C21.1123 24 21.4079 23.8749 21.6323 23.6474C22.1091 23.1641 22.1243 22.3628 21.6655 21.8602ZM9.2003 2.52782C12.95 2.52782 16.0005 5.74069 16.0005 9.68999C16.0005 13.6393 12.95 16.8522 9.2003 16.8522C5.45058 16.8522 2.40008 13.6393 2.40008 9.68999C2.40008 5.74069 5.45058 2.52782 9.2003 2.52782Z" fill="#222222"/>
</svg>
