<svg width="33" height="32" viewBox="0 0 33 32" fill="none" xmlns="http://www.w3.org/2000/svg">
<path d="M2.10458 11.5844C2.27309 12.1622 2.50694 12.7194 2.80269 13.2422L1.96015 14.3051C1.68504 14.6525 1.71599 15.1478 2.02549 15.4608L3.47671 16.9122C3.78966 17.2252 4.28486 17.2527 4.63219 16.9776L5.68794 16.1417C6.23129 16.4548 6.80903 16.6989 7.41084 16.8709L7.56903 18.2295C7.62061 18.6698 7.99202 19 8.4322 19H10.4852C10.9254 19 11.2968 18.6698 11.3484 18.2295L11.4997 16.9191C12.1462 16.7505 12.7652 16.4995 13.3464 16.1727L14.3678 16.981C14.7151 17.2562 15.2103 17.2252 15.5233 16.9156L16.9745 15.4642C17.2874 15.1512 17.3149 14.6559 17.0398 14.3085L16.2454 13.3007C16.5756 12.7297 16.8335 12.1209 17.0054 11.4846L18.2297 11.3436C18.6699 11.292 19 10.9205 19 10.4803V8.42686C19 7.9866 18.6699 7.61513 18.2297 7.56354L17.0226 7.42252C16.8575 6.79308 16.6099 6.19117 16.2936 5.62708L17.0364 4.68809C17.3115 4.34069 17.2806 3.8454 16.9711 3.5324L15.5233 2.08436C15.2103 1.77136 14.7151 1.74384 14.3678 2.01901L13.4565 2.74131C12.865 2.39392 12.2322 2.12907 11.5685 1.95022L11.431 0.770456C11.3794 0.330195 11.008 0 10.5678 0H8.51477C8.07458 0 7.70318 0.330195 7.6516 0.770456L7.51404 1.95022C6.83313 2.13251 6.18318 2.40768 5.57793 2.76883L4.63223 2.01901C4.28489 1.74384 3.78969 1.7748 3.47675 2.08436L2.02552 3.53584C1.71258 3.84884 1.68507 4.34413 1.96018 4.69153L2.75114 5.69243C2.43476 6.2634 2.19403 6.87219 2.03584 7.50507L0.770318 7.64953C0.330136 7.70112 0 8.07259 0 8.51285V10.5663C0 11.0065 0.330136 11.378 0.770318 11.4296L2.10458 11.5844ZM9.54297 6.02954C11.4137 6.02954 12.9372 7.55326 12.9372 9.42436C12.9372 11.2955 11.4137 12.8192 9.54297 12.8192C7.67223 12.8192 6.14875 11.2955 6.14875 9.42436C6.14875 7.55326 7.6722 6.02954 9.54297 6.02954Z" fill="white"/>
<path d="M30.7289 12.4088L29.6194 11.4731C29.2777 11.1847 28.774 11.1988 28.45 11.5048L27.8372 12.0782C27.3194 11.8284 26.77 11.6525 26.2028 11.5505L26.0303 10.7063C25.9423 10.2701 25.5372 9.9676 25.0933 10.0028L23.6457 10.1259C23.2019 10.1646 22.8532 10.5269 22.8391 10.9736L22.811 11.8319C22.2544 12.0324 21.7296 12.3068 21.2506 12.6515L20.518 12.1661C20.1446 11.9199 19.648 11.9902 19.3592 12.3314L18.4223 13.4465C18.1334 13.7877 18.1475 14.2907 18.4539 14.6143L19.095 15.2967C18.8731 15.7962 18.7145 16.3204 18.623 16.8585L17.7072 17.045C17.2705 17.1329 16.9676 17.5374 17.0028 17.9807L17.1261 19.4264C17.1648 19.8696 17.5276 20.2179 17.9749 20.2319L18.9647 20.2636C19.1444 20.7349 19.3803 21.1817 19.6656 21.6002L19.1126 22.4339C18.8661 22.8068 18.9365 23.3028 19.2781 23.5912L20.3876 24.5269C20.7293 24.8153 21.233 24.8012 21.5571 24.4952L22.2826 23.8163C22.7581 24.0379 23.2583 24.2033 23.7725 24.3017L23.9733 25.2937C24.0614 25.7299 24.4664 26.0324 24.9102 25.9972L26.3579 25.8741C26.8017 25.8354 27.1504 25.4731 27.1644 25.0264L27.1961 24.0555C27.7245 23.869 28.2246 23.6158 28.686 23.3027L29.4856 23.8304C29.8589 24.0766 30.3555 24.0063 30.6444 23.6651L31.5813 22.557C31.8701 22.2158 31.856 21.7128 31.5496 21.3892L30.905 20.7068C31.141 20.2073 31.3137 19.6797 31.4122 19.1379L32.2928 18.9585C32.7295 18.8706 33.0324 18.4661 32.9972 18.0228L32.8739 16.5771C32.8352 16.1339 32.4724 15.7856 32.0251 15.7716L31.141 15.7434C30.9578 15.2298 30.7113 14.7445 30.4049 14.2942L30.8874 13.5695C31.141 13.1967 31.0706 12.6973 30.7289 12.4088ZM25.273 20.7666C23.7091 20.9003 22.3284 19.7359 22.1981 18.1741C22.0642 16.6123 23.2301 15.2334 24.7939 15.1032C26.3578 14.9696 27.7386 16.1339 27.8689 17.6957C28.0027 19.2576 26.8368 20.6365 25.273 20.7666Z" fill="white"/>
<path d="M6.80026 24.1373C6.35612 24.1831 6.01421 24.5568 6.01069 25.0046L6.00011 25.8967C5.99306 26.3444 6.3244 26.7252 6.76854 26.7817L7.42416 26.8663C7.53344 27.2647 7.68853 27.6455 7.88945 28.0051L7.46646 28.527C7.18447 28.876 7.20562 29.3767 7.51934 29.6975L8.14324 30.3357C8.45696 30.6566 8.95749 30.6918 9.3135 30.4168L9.83868 30.0113C10.2088 30.2299 10.6001 30.4027 11.0089 30.5226L11.0794 31.1995C11.1253 31.6438 11.4989 31.9858 11.9466 31.9893L12.8384 31.9999C13.286 32.0069 13.6667 31.6755 13.7231 31.2313L13.8042 30.5896C14.2484 30.4802 14.6714 30.3145 15.0732 30.0959L15.5667 30.4944C15.9156 30.7764 16.4162 30.7553 16.7369 30.4415L17.375 29.8174C17.6957 29.5036 17.731 29.0029 17.4561 28.6468L17.0788 28.1567C17.3115 27.7689 17.4913 27.3563 17.6146 26.9227L18.1998 26.8627C18.6439 26.8169 18.9858 26.4432 18.9894 25.9954L18.9999 25.1033C19.007 24.6556 18.6756 24.2747 18.2315 24.2183L17.6604 24.1443C17.5512 23.7141 17.3891 23.2981 17.1776 22.9102L17.5336 22.473C17.8156 22.124 17.7944 21.6233 17.4807 21.3025L16.8568 20.6643C16.5431 20.3434 16.0425 20.3082 15.6865 20.5832L15.26 20.9111C14.8582 20.6678 14.4281 20.481 13.977 20.354L13.9205 19.8005C13.8747 19.3562 13.5011 19.0142 13.0534 19.0107L12.1616 19.0001C11.714 18.9931 11.3333 19.3245 11.2768 19.7687L11.2063 20.3188C10.7411 20.4386 10.2934 20.622 9.87748 20.8617L9.43687 20.5021C9.08791 20.22 8.58734 20.2412 8.26658 20.555L7.62505 21.1826C7.30428 21.4964 7.26903 21.9971 7.54397 22.3532L7.92114 22.8398C7.70259 23.2276 7.52988 23.6401 7.41708 24.0738L6.80026 24.1373ZM12.5564 23.1288C13.8359 23.143 14.8616 24.1972 14.8476 25.4771C14.8335 26.757 13.7795 27.7829 12.5 27.7689C11.2204 27.7548 10.1947 26.7005 10.2088 25.4206C10.2229 24.1408 11.2769 23.1148 12.5564 23.1288Z" fill="white"/>
</svg>
