<svg width="41" height="36" viewBox="0 0 41 36" fill="none" xmlns="http://www.w3.org/2000/svg">
<path d="M19 0H22V5H19V0Z" fill="#1470DB"/>
<path d="M27 6.76007L29.8104 2L32 3.24026L29.1896 8L27 6.76007Z" fill="#1470DB"/>
<path d="M33 11.2438L37.7647 9L39 10.7564L34.2353 13L33 11.2438Z" fill="#1470DB"/>
<path d="M35 19.9912L35.0053 18L41 18.0088L40.9947 20L35 19.9912Z" fill="#1470DB"/>
<path d="M9 3.24L11.1894 2L14 6.76L11.8106 8L9 3.24Z" fill="#1470DB"/>
<path d="M2 10.7564L3.23554 9L8 11.2438L6.76478 13L2 10.7564Z" fill="#1470DB"/>
<path d="M0 18.0088L5.99472 18L6 19.9912L0.00527519 20L0 18.0088Z" fill="#1470DB"/>
<path d="M17.0008 20.6445H23.9992V28H33V20.1177C33 13.9875 27.3928 9 20.5 9C13.6076 9 8 13.9875 8 20.1177V28H17.0008V20.6445Z" fill="#1470DB"/>
<path d="M19 22H22V28H19V22Z" fill="#1470DB"/>
<path d="M6 30H35V36H6V30Z" fill="#1470DB"/>
</svg>
