<svg width="26" height="18" viewBox="0 0 26 18" fill="none" xmlns="http://www.w3.org/2000/svg">
<path d="M25.8506 5.56966C25.7235 5.41793 25.5337 5.32936 25.3347 5.32936H22.8043C22.1798 3.71826 21.3663 2.13972 20.4416 1.54386C17.2429 -0.514621 8.7583 -0.514621 5.55952 1.54386C4.63418 2.14037 3.824 3.72087 3.19623 5.32936H0.665832C0.464785 5.32936 0.275721 5.41793 0.149901 5.56966C0.0234144 5.72074 -0.0271802 5.92066 0.0140944 6.11277L0.388893 7.88928C0.452802 8.19209 0.725747 8.40829 1.04063 8.40829H1.79023C1.06659 9.22491 0.715761 10.2532 0.711101 11.2821C0.706441 12.5533 1.19974 13.702 2.10179 14.5147C2.11177 14.5232 2.12176 14.529 2.13108 14.5375V17.0232C2.13108 17.5617 2.57844 18 3.12965 18H5.46366C6.01487 18 6.46224 17.5617 6.46224 17.0232V16.0242H19.5376V17.0232C19.5376 17.5617 19.985 18 20.5362 18H22.8702C23.4201 18 23.8688 17.5617 23.8688 17.0232V14.5863C24.8261 13.7287 25.2834 12.5487 25.2894 11.3707C25.2934 10.3066 24.9266 9.24054 24.1603 8.40699H24.9599C25.2761 8.40699 25.549 8.19079 25.6116 7.88732L25.9871 6.11147C26.0257 5.92066 25.9771 5.72204 25.8506 5.56966ZM6.65596 3.17515C9.20566 1.53344 16.7942 1.53344 19.3425 3.17515C19.8378 3.49294 20.4749 4.77778 21.0588 6.35111H4.94107C5.52358 4.77843 6.16067 3.49424 6.65596 3.17515ZM3.66955 11.5269C3.66955 10.4655 4.54963 9.60587 5.63408 9.60587C6.71987 9.60587 7.59862 10.4655 7.59862 11.5269C7.59862 12.5884 6.71987 13.4487 5.63408 13.4487C4.54963 13.4487 3.66955 12.5884 3.66955 11.5269ZM20.3917 13.4487C19.3073 13.4487 18.4272 12.5884 18.4272 11.5269C18.4272 10.4655 19.3073 9.60587 20.3917 9.60587C21.4775 9.60587 22.3563 10.4655 22.3563 11.5269C22.3563 12.5884 21.4762 13.4487 20.3917 13.4487Z" fill="white"/>
</svg>
